<svg xmlns="http://www.w3.org/2000/svg" viewBox="0 0 150 150">
<!-- SVG created with Arrow, by QuiverAI (https://quiver.ai) -->
  <style type="text/css">.cls-0 {fill:#010102;}
.cls-1 {fill:#2E2776;}
.cls-2 {fill:#291C4D;}
.cls-3 {fill:#181234;}
.cls-4 {fill:#2F2777;}</style>
  <path class="cls-0" d="m134.4 36.4 9.6-1.8v85.2l-55.4 4.4c-3.1 4.4-10.8 6.8-13.6 7.1-3.4-0.4-9.4-2-13.4-7l-55.5-4.5v-85.3c2.6 0.4 8.5 1.7 9.4 1.8l0.1 0.3v6.9l-1.8-0.3v70l24 1.7c7.5 0.7 23.8 2.1 30.3 5-8.1-7.3-23.2-15.8-35.9-21.4v-42c1.7 2.7 6 7.9 9.2 11.2v25.4c7.6 2.8 20.9 8.6 33.7 22.8 5.8-6.3 15.6-13.7 25-18.5 3.6-1.7 8-3.3 8.4-3.5l8.7-3.1v7.6c-7.2 2.3-23 8-36.1 21.8 6.9-2.1 20.5-4.4 55-6.8v-70.1l-1.7 0.3v-7.1-0.1z"/>
  <path class="cls-1" d="m17.9 51.6v55.7c8.1 0.6 26.9 3.4 49 11.7-4.7-2.7-16.9-9.5-34.5-14.6l-6.2-1.9v-32.9c-3.7-5.6-6.9-12.8-8.3-18z"/>
  <path class="cls-2" d="m17.9 26v25.7c1.8 5.3 4.3 11.6 8.3 18l-0.1-33 4 1.7v-8.5c-3-1.1-8.2-2.8-12.2-3.9z"/>
  <path class="cls-1" d="m32.2 18.6v37.8c1.8 3 6.6 8.6 9.2 11.3v-36c3.6 1.7 9.7 4.6 16.2 8.7v-9.7c-5.5-3.8-12.5-8.1-25.4-12.1z"/>
  <path class="cls-1" d="m59.8 32.3v62l15.3-11.4v-39.5c-3.7-3-7.5-6.2-15.3-11.1z"/>
  <path d="m75.1 43.4v39.5l15.2 11.3v-61.9c-3.3 1.9-10.4 7-15.2 11.1z"/>
  <path class="cls-1" d="m92.6 30.8 0.1 9.4c3.9-2.3 9.2-5.5 15.8-8.5v-0.1 0.1h0.1v-0.1 0.1h-0.1c-0.3 0.1 0.2-0.1 0 0v45.5c2.8-1.8 6.6-4.9 8.8-7.4v-51.2c-7.3 2.5-14.4 5.5-24.7 12.2z"/>
  <path class="cls-1" d="m119.2 30.1v8.1l4-1.4-0.1 25.6c2.8-3.8 6.5-11.1 9.2-18.4v-18c-1.2 0.1-8.5 2.3-13.1 4.1z"/>
  <path class="cls-2" d="m132.3 44c-1.8 5.1-4.5 11.8-9.2 18.4v22.4l9.2-4.5v-36.3z"/>
  <path class="cls-3" d="m108.5 77.2v12.4l8.8-2.3v-17.5c-2.1 2.2-5.2 5-8.8 7.4z"/>
  <path class="cls-2" d="m108.5 89.6v4.1l8.7-2.9 0.1-3.6-8.8 2.4z"/>
  <path class="cls-1" d="m123.1 84.8 0.2 17.5c-8.5 2.5-20.6 5.7-40.4 17.2 6.4-2.2 18.3-5.7 49.4-12.1v-27.1l-9.2 4.5z"/>
  <path class="cls-2" d="m50.8 97.3 24.3 29.4 25-29.3c-6.5 2.7-16.1 8.1-25 18.5-3.9-4.3-11.7-12.2-24.3-18.6z"/>
  <path class="cls-4" d="m82.9 119.5c5.1-1.9 11.5-3.7 22.6-5.9-3.9-4 3.4-6.5 0.9-5.2-5.6 1.9-14 5.7-23.5 11.1z"/>
</svg>